<?xml version="1.0" encoding="utf-8"?>
<!-- Generator: Adobe Illustrator 23.0.2, SVG Export Plug-In . SVG Version: 6.00 Build 0)  -->
<svg version="1.1" id="Ebene_1" xmlns="http://www.w3.org/2000/svg" xmlns:xlink="http://www.w3.org/1999/xlink" x="0px" y="0px"
	 width="308.3px" height="172.3px" viewBox="0 0 308.3 172.3" style="enable-background:new 0 0 308.3 172.3;" xml:space="preserve"
	>
<path d="M153.3,0c-1.6,0-2.8,0.4-2.8,1v52.4c0,0.4,0.6,0.7,1.5,0.9v88c-7,0.5-12.6,5.7-13.8,12.4h-22.8v5h22.8
	c1.2,7.1,7.3,12.5,14.8,12.5s13.6-5.4,14.8-12.5h22.7v-5h-22.7c-1.1-6.6-6.5-11.7-13.2-12.4v-88c0.7-0.1,1.3-0.3,1.5-0.6l8-1.5
	c0.2,0.3,0.3,0.6,0.5,0.8c0.4,0.5,1,1.1,1.9,1.1c0.5,0,0.9-0.2,1.2-0.4c1.8-0.3,5.9,0,15.1-0.6c3.8-0.3,7.5-0.7,10.3-1.1
	c1.4-0.2,2.6-0.4,3.5-0.5c0.4-0.1,0.7-0.1,1-0.2c0,0.6,0.1,1.2,0.5,1.7l0,0c0,0.1,0.1,0,0.1,0.1c0,0,0,0.1,0,0.1l0,0
	c0.2,0.3,0.4,0.5,0.6,0.6c0.2,0.2,0.5,0.3,0.8,0.5c0.6,0.3,1.3,0.7,2.1,1.1s1.6,0.7,2.4,0.9c0.7,0.3,1.4,0.5,2.1,0.5c0,0,0,0,0.1,0
	c0,0,0,0,0,0c0.1,0.3,0.1,0.6,0.2,0.8c0.2,0.4,0.4,0.7,0.7,1c0.5,0.7,1.3,1.5,2.2,2.4c1.8,1.8,4.5,4.1,7.6,6.8
	c6.2,5.4,14.4,12.3,22.4,19.4c8,7.1,15.7,14.4,21.6,19.8c2.9,2.7,5.4,5,7.2,6.7c0.9,0.8,1.6,1.4,2.2,1.9c0.3,0.2,0.5,0.4,0.8,0.6
	c0.1,0.1,0.2,0.1,0.3,0.2c0.1,0.1,0.2,0.2,0.8,0.2c1.1,0,2-0.4,3.1-0.9s2.1-1.2,3.2-1.9c2.2-1.5,4.2-3.2,5.4-4.5
	c1.3-1.4,2.8-3.7,3.9-6.2c0.6-1.2,1-2.5,1.2-3.8c0.2-1,0.1-2.1-0.3-3h0c-0.1-0.4-0.2-0.4-0.3-0.6c-0.1-0.1-0.1-0.3-0.2-0.4
	c-0.2-0.3-0.4-0.6-0.6-0.9c-0.5-0.7-1.2-1.6-2.1-2.8c-1.8-2.2-4.3-5.3-7.3-8.9c-6.1-7.3-14.4-16.8-23.3-26.7
	C237,36.2,217,15,206.8,7.7h0c-2-1.3-5-1.9-8.9-2.3s-8.5-0.7-12.9-0.9s-8.8-0.3-12.1-0.5c-1.7-0.1-3.1-0.2-4.1-0.3
	c-0.4-0.1-0.7-0.1-1-0.2c-0.4-0.3-0.8-0.5-1.4-0.5c-0.7,0-1.2,0.4-1.6,0.8l-8.6-0.1v3l7.1,0.1c-0.4,1.2-0.7,2.7-1,4.5l0,0.1
	c-0.7,4.6-1.1,10.9-1.1,17.3c0,6.4,0.4,12.7,1.1,17.3v0c0.2,1.3,0.4,2.5,0.7,3.5l-6.8,1.3V1C156.1,0.4,154.8,0,153.3,0L153.3,0z
	 M169.5,6.7c0.9,0.1,2,0.2,3.2,0.2c3.4,0.2,7.7,0.3,12.1,0.5s8.9,0.5,12.7,0.9c3.7,0.5,6.7,1.2,7.6,1.8c0,0,0,0,0,0
	c9.5,6.8,29.7,28.1,47.5,47.8c8.9,9.9,17.2,19.4,23.2,26.7c3,3.6,5.5,6.6,7.3,8.8c0.9,1.1,1.6,2,2,2.6c0.2,0.3,0.4,0.6,0.5,0.8
	c0,0.1,0,0.1,0.1,0.1c0,0,0,0.1,0,0.1v0.1l0.2,0.3c0.1,0.1,0.2,0.6,0.1,1.4s-0.5,1.9-1,3c-1,2.2-2.5,4.4-3.3,5.4
	c-0.9,1-2.9,2.7-4.9,4.1c-1,0.7-2,1.3-2.8,1.7c-0.7,0.3-1.2,0.4-1.4,0.5c-0.1-0.1-0.2-0.1-0.3-0.2c-0.5-0.4-1.2-1-2.1-1.8
	c-1.8-1.6-4.2-3.9-7.2-6.6c-5.9-5.5-13.7-12.7-21.7-19.9c-8-7.1-16.3-14-22.4-19.4c-3.1-2.7-5.7-5-7.4-6.7c-0.7-0.6-1-1.1-1.4-1.6
	c0.5,0,0.9,0,1.6,0.1c2.2,0.3,5.1,1,8.1,1.6s5.9,1.2,8.3,1.4c1.2,0.1,2.2,0.1,3.2-0.2c0.5-0.1,1-0.3,1.4-0.8s0.8-1,0.8-1.7l0-0.2
	l0-0.2c-0.2-1.2-0.9-2.1-1.8-2.7s-1.9-1-3.1-1.3c-2.3-0.5-5.2-0.6-8.1-0.6c-5.9,0.1-12.3,0.9-14.1,0.9h0c0.1,0-0.5-0.1-1.2-0.3
	s-1.4-0.5-2.1-0.8s-1.4-0.7-1.9-0.9c-0.2-0.1-0.4-0.3-0.5-0.3c0-0.1,0-0.3,0-0.8c0.1-0.6,0.4-1.6,0.8-2.7c0.9-2.2,2.3-4.9,3.7-7.5
	s2.8-5.3,3.6-7.5c0.4-1.1,0.7-2,0.7-3c0-0.5,0-1-0.3-1.6c-0.3-0.5-0.8-1-1.3-1.2l0,0h0c-1-0.4-2.2,0-3,0.6c-0.8,0.6-1.2,1.5-1.7,2.4
	c-0.9,1.9-1.6,4.4-2.3,7s-1.3,5.3-2,7.4c-0.7,2.1-1.6,3.6-1.9,3.8c-0.2,0-0.5,0.1-0.9,0.2c-0.8,0.2-1.9,0.3-3.3,0.5
	c-2.8,0.4-6.4,0.8-10.1,1.1c-6.6,0.5-10.4,0.3-13,0.4c0.4-1.3,0.7-2.8,1-4.7c0.7-4.6,1.1-10.9,1.1-17.3c0-6.4-0.4-12.7-1.1-17.3
	C170.3,9.5,169.9,7.9,169.5,6.7L169.5,6.7z M166.4,6.8C166.4,6.8,166.4,6.8,166.4,6.8c0.4,1.1,0.8,2.8,1.2,5
	c0.7,4.3,1.1,10.6,1.1,16.8c0,6.2-0.4,12.4-1.1,16.8v0.1c-0.3,2.2-0.7,3.9-1.1,4.9c0,0,0,0,0,0.1c0,0,0,0,0-0.1
	c-0.4-1-0.8-2.7-1.1-4.9c-0.7-4.3-1.1-10.6-1.1-16.8c0-6.2,0.4-12.4,1.1-16.8C165.6,9.6,166,7.9,166.4,6.8
	C166.4,6.8,166.4,6.8,166.4,6.8z M206.1,30.8c-0.1,0.4-0.1,0.6-0.3,1.1c-0.2,0.5-0.6,1.3-0.9,1.8c0.2-0.7,0.5-1.8,0.7-2.3
	C205.8,31.1,206,31,206.1,30.8z M220.4,55.9c2.8-0.1,5.5,0.1,7.4,0.5c0.9,0.2,1.7,0.5,2.1,0.8c0.1,0.1,0,0.1,0.1,0.1
	c-0.4,0.1-1,0.1-1.8,0.1c-2.1-0.1-4.9-0.7-7.9-1.3c-0.2,0-0.4-0.1-0.6-0.1C219.9,55.9,220.1,55.9,220.4,55.9L220.4,55.9z
	 M152.9,147.3c5.6,0,10,4.4,10,10s-4.4,10-10,10s-10-4.4-10-10S147.3,147.3,152.9,147.3z"/>
</svg>
