<?xml version="1.0" encoding="utf-8"?>
<!-- Generator: Adobe Illustrator 23.0.2, SVG Export Plug-In . SVG Version: 6.00 Build 0)  -->
<svg version="1.1"
	 id="svg2" xmlns:cc="http://creativecommons.org/ns#" xmlns:dc="http://purl.org/dc/elements/1.1/" xmlns:rdf="http://www.w3.org/1999/02/22-rdf-syntax-ns#" xmlns:svg="http://www.w3.org/2000/svg"
	 xmlns="http://www.w3.org/2000/svg" xmlns:xlink="http://www.w3.org/1999/xlink" x="0px" y="0px" width="58px" height="67px"
	 viewBox="0 0 58 67" style="enable-background:new 0 0 58 67;" xml:space="preserve">
<style type="text/css">
	.st0{fill:#A30075;}
</style>
<path id="path5" class="st0" d="M28.7,0c-4,0-7.2,2.9-7.2,6.4c0,3,2.3,5.6,5.5,6.2v2.5l-10.1-0.1v3.1h10.1L26.9,23
	c-7.4,0.9-13.2,7.2-13.2,14.9c0,7.4,5.4,13.6,12.5,14.8l-0.1,5.6c-7.2-0.6-13.6-3.2-18.2-7.2l2.7-2.4L0,40.9l2.2,15.2l4.1-3.5
	c5.2,5.8,12.4,9.3,19.9,10l0.5,4.4h4.9l0.5-4.4c4.6-0.4,9.2-1.9,13.4-4.6c2.5-1.6,4.6-3.3,6.4-5.3l3.7,3.4l2.6-15l-10.6,7.6l2.6,2.4
	c-4.6,3.9-10.9,6.6-18.1,7.1l-0.1-5.7c6.8-1.4,12-7.5,12-14.7c0-7.5-5.5-13.7-12.7-14.8l-0.1-5h10.1v-3l-10.4,0v-2.5
	c3-0.8,5.2-3.3,5.2-6.2C35.9,2.9,32.7,0,28.7,0z M28.7,3.4c1.9,0,3.4,1.4,3.4,3.1c0,1.7-1.5,3.1-3.4,3.1c-1.9,0-3.4-1.4-3.4-3.1
	C25.3,4.7,26.9,3.4,28.7,3.4z M28.8,25.2c7,0,12.6,5.6,12.6,12.6c0,7-5.6,12.6-12.6,12.6c-7,0-12.6-5.6-12.6-12.6
	C16.2,30.8,21.8,25.2,28.8,25.2z"/>
</svg>
