<?xml version="1.0" encoding="utf-8"?>
<!-- Generator: Adobe Illustrator 23.0.2, SVG Export Plug-In . SVG Version: 6.00 Build 0)  -->
<svg version="1.1"
	 id="svg8829" xmlns:cc="http://creativecommons.org/ns#" xmlns:dc="http://purl.org/dc/elements/1.1/" xmlns:inkscape="http://www.inkscape.org/namespaces/inkscape" xmlns:rdf="http://www.w3.org/1999/02/22-rdf-syntax-ns#" xmlns:sodipodi="http://sodipodi.sourceforge.net/DTD/sodipodi-0.dtd" xmlns:svg="http://www.w3.org/2000/svg"
	 xmlns="http://www.w3.org/2000/svg" xmlns:xlink="http://www.w3.org/1999/xlink" x="0px" y="0px" width="60px" height="60px"
	 viewBox="0 0 60 60" style="enable-background:new 0 0 60 60;" xml:space="preserve">
<style type="text/css">
	.st0{fill:#A30075;}
</style>
<title  id="title2986">T1.1: Pilot Boarding Position</title>
<sodipodi:namedview  bordercolor="#666666" borderopacity="1.0" fit-margin-bottom="0" fit-margin-left="0" fit-margin-right="0" fit-margin-top="0" gridtolerance="10.0" guidetolerance="10.0" id="base" inkscape:current-layer="g2415" inkscape:cx="8.4000008" inkscape:cy="66.625" inkscape:pageopacity="0.0" inkscape:pageshadow="2" inkscape:window-height="808" inkscape:window-maximized="1" inkscape:window-width="1440" inkscape:window-x="0" inkscape:window-y="0" inkscape:zoom="3.0555556" objecttolerance="10.0" pagecolor="#ffffff" showgrid="false">
	</sodipodi:namedview>
<g id="g2415" transform="translate(-24,-18.4375)">
	<path id="path2421" inkscape:connector-curvature="0" class="st0" d="M54.1,18.4c-17.4,0-29.7,12.9-29.7,30.6s11.8,29.4,29.2,29.4
		c17.9,0,29.9-13.1,30-30.5C83.8,30.1,71.3,18.4,54.1,18.4z M54.2,19.9C69.8,20,81.7,32.2,81.7,48c0,15.7-12.2,28.6-27.5,28.9
		l9.6-30.7L54.2,19.9z M53.7,19.9l-9.6,26.7L53.7,77c-0.1,0-0.1,0-0.1,0c-15.6,0-27.4-11.9-27.4-27.8C26.2,33.4,38.2,20.1,53.7,19.9
		z"/>
</g>
</svg>
