<?xml version="1.0" encoding="utf-8"?>
<!-- Generator: Adobe Illustrator 23.0.2, SVG Export Plug-In . SVG Version: 6.00 Build 0)  -->
<svg version="1.1" id="Ebene_1" xmlns="http://www.w3.org/2000/svg" xmlns:xlink="http://www.w3.org/1999/xlink" x="0px" y="0px"
	 width="300px" height="400px" viewBox="0 0 300 400" style="enable-background:new 0 0 300 400;" xml:space="preserve">
<style type="text/css">
	.st0{fill-rule:evenodd;clip-rule:evenodd;}
</style>
<symbol  id="light" viewBox="-53.6 -200 107.1 400">
	<path class="st0" d="M2,105.6l-51.9-228.8l-3.8-16.8l0.3-16.7l6.3-16.1l11.1-13.6l14.4-9.4l16.7-4.4l17.7,1.1l16.5,6.3L42.2-182
		l7.4,14.2l3.2,16.5l0.8,17.7l0,3.6L2,105.6L2,105.6z M8,195.6c-2.8,4.4-8.8,5.8-13.2,2.9c-4.4-2.8-5.8-8.8-2.9-13.2
		c2.8-4.4,8.8-5.8,13.2-2.9C9.5,185.2,10.8,191.1,8,195.6z"/>
</symbol>
<use xlink:href="#light"  width="107.1" height="400" id="XMLID_1_" x="-53.6" y="-200" transform="matrix(1 0 0 1 150 200)" style="overflow:visible;"/>
</svg>
