<?xml version="1.0" encoding="utf-8"?>
<!-- Generator: Adobe Illustrator 23.0.2, SVG Export Plug-In . SVG Version: 6.00 Build 0)  -->
<svg version="1.1"
	 id="svg2" xmlns:cc="http://creativecommons.org/ns#" xmlns:dc="http://purl.org/dc/elements/1.1/" xmlns:inkscape="http://www.inkscape.org/namespaces/inkscape" xmlns:rdf="http://www.w3.org/1999/02/22-rdf-syntax-ns#" xmlns:sodipodi="http://sodipodi.sourceforge.net/DTD/sodipodi-0.dtd" xmlns:svg="http://www.w3.org/2000/svg"
	 xmlns="http://www.w3.org/2000/svg" xmlns:xlink="http://www.w3.org/1999/xlink" x="0px" y="0px" width="20px" height="20px"
	 viewBox="0 0 20 20" style="enable-background:new 0 0 20 20;" xml:space="preserve">
<style type="text/css">
	.st0{fill-rule:evenodd;clip-rule:evenodd;fill:#A30075;}
</style>
<title  id="title2982">U1.1: Marina</title>
<sodipodi:namedview  bordercolor="#666666" borderopacity="1" gridtolerance="10" guidetolerance="10" id="namedview3002" inkscape:current-layer="svg2" inkscape:cx="-100.60836" inkscape:cy="60" inkscape:pageopacity="0" inkscape:pageshadow="2" inkscape:window-height="494" inkscape:window-maximized="0" inkscape:window-width="719" inkscape:window-x="0" inkscape:window-y="0" inkscape:zoom="2.1916667" objecttolerance="10" pagecolor="#ffffff" showgrid="false">
	</sodipodi:namedview>
<path id="path12043" class="st0" d="M1.8,15.6h7.7L9.8,1.6h0.4l0.1,2.9L13.3,3l0,1.3l0,1.2l0.1,1.2L13.8,8l0.4,1.2l0.5,1.1l0.6,1.1
	l0.8,1l0.8,0.8l-6.5,1.2v1.3h7.8l-0.8,0.9l-0.9,0.9l-1,0.8l-1.1,0.6l-1.2,0.5l-1.2,0.3l-1.3,0.2l-1.3,0l-1.2-0.1l-1.2-0.3l-1.2-0.4
	l-1.1-0.6l-1-0.7l-0.9-0.9l-0.8-1L1.8,15.6z M3.7,15l-0.1-1.3l0-1.2l0.1-1.2L4.1,10l0.4-1.2l0.6-1.1l0.7-1.1l0.8-1l0.9-0.8l1-0.7
	l0.7-0.4L8.5,4.8L7.9,5.9L7.5,7L7.2,8.3L7.1,9.5l0,1.2L7.2,12l0.2,1.1L3.7,15 M1.4,15l-0.5-1.1l-0.5-1.2l-0.3-1.2L0,10.3L0,9
	l0.2-1.2l0.4-1.2l0.5-1.2l0.7-1.1l0.8-1l0.9-0.9l1-0.8l1.1-0.6l1.2-0.5L8,0.3l1.3-0.2l1.3,0l1.3,0.1l1.2,0.3L14.3,1l1.1,0.6l1,0.8
	l0.9,0.9l0.8,1l0.7,1.1l0.5,1.2l0.4,1.2L19.9,9l0.1,1.3l-0.1,1.2l-0.3,1.2l-0.4,1.2L18.6,15l0,0h-1l0.6-1.1l0.5-1.1l0.3-1.2l0.1-1.2
	L19,9l-0.2-1.3l-0.4-1.2l-0.6-1.1l-0.7-1l-0.8-0.9l-1-0.8L14.3,2l-1.2-0.5l-1.2-0.3l-1.3-0.2l-1.3,0L8.1,1.1L6.9,1.5L5.7,2L4.6,2.7
	l-1,0.8L2.8,4.5L2.1,5.5L1.6,6.7L1.2,7.9L0.9,9.1l-0.1,1.3L1,11.6l0.3,1.2L1.8,14l0.5,1H1.4z"/>
</svg>
