<?xml version="1.0" encoding="utf-8"?>
<!-- Generator: Adobe Illustrator 23.0.2, SVG Export Plug-In . SVG Version: 6.00 Build 0)  -->
<svg version="1.1"
	 id="svg2" xmlns:cc="http://creativecommons.org/ns#" xmlns:dc="http://purl.org/dc/elements/1.1/" xmlns:inkscape="http://www.inkscape.org/namespaces/inkscape" xmlns:rdf="http://www.w3.org/1999/02/22-rdf-syntax-ns#" xmlns:sodipodi="http://sodipodi.sourceforge.net/DTD/sodipodi-0.dtd" xmlns:svg="http://www.w3.org/2000/svg"
	 xmlns="http://www.w3.org/2000/svg" xmlns:xlink="http://www.w3.org/1999/xlink" x="0px" y="0px" width="60px" height="60px"
	 viewBox="0 0 60 60" style="enable-background:new 0 0 60 60;" xml:space="preserve">
<style type="text/css">
	.st0{fill:#FFFFFF;fill-opacity:0.5;stroke:#A30075;stroke-width:2;}
	.st1{fill:#A30075;}
</style>
<path id="rect5_1_" class="st0" d="M17,59h26c8.8,0,16-7.2,16-16V17c0-8.8-7.2-16-16-16H17C8.2,1,1,8.2,1,17v26C1,51.8,8.2,59,17,59
	z"/>
<path id="path3814" inkscape:connector-curvature="0" sodipodi:nodetypes="csssssssssssssssssssssscccccsssssssssssssssssssssssc" class="st1" d="
	M49.8,52.6c0.9-0.5,1.4-1.5,1.4-2.5c0-1.1-0.4-1.9-1.6-3c-0.5-0.5-4.8-4.3-9.6-8.5s-8.7-7.7-8.6-7.8c0.2-0.5,2.4-2.8,3-3.2
	c0.7-0.4,0.8-0.4,2.8-0.3c4.3,0.2,6.7-0.6,9.6-3.2c2.9-2.7,4.3-5.7,4.3-9.1c0-1.7-0.3-2.9-0.9-4c-0.3-0.6-0.7-0.9-1.6-1.3
	c-1-0.5-1.3-0.6-3-0.6c-2.2-0.1-3.4,0.2-5.4,1.1c-3.2,1.5-5.9,4.6-7,7.8c-0.2,0.8-0.3,1.6-0.3,4.1c0,2.6-0.1,3.2-0.3,3.6
	c-0.3,0.5-3.2,3.1-3.4,3.1c-0.1,0-0.8-0.6-1.6-1.2c-1.7-1.4-1.9-2-1.6-3.2c0.5-2,0.1-3.5-1.2-4.9C24.1,18.7,11.3,9,10.8,8.8
	c-0.1,0-0.3,0-0.4,0.1c-0.1,0.2,1,1.3,5.1,5c2.9,2.6,5.6,5.1,6,5.5l0.8,0.7l-0.3,0.3l-0.3,0.3l-6-5.5c-5.6-5.1-6-5.5-6.3-5.3
	c-0.3,0.3,0.1,0.7,5.5,6c5.1,5.1,5.7,5.8,5.5,6c-0.2,0.2-0.9-0.4-6-5.5c-5-5-5.8-5.8-6-5.5c-0.2,0.2,0.2,0.7,2.5,3.2
	c9.1,9.8,8.4,9,8,9.4c-0.3,0.3-0.3,0.3-0.7,0c-0.2-0.2-2.6-2.9-5.5-6c-3.8-4.2-5.2-5.7-5.4-5.5c-0.1,0.1-0.2,0.3-0.2,0.3
	c0,0.3,10.3,13.8,10.9,14.3c1.3,1.1,2.7,1.3,4.6,0.9c0.7-0.1,0.9-0.1,1.4,0.1c0.5,0.3,2.8,2.7,2.8,3c0,0.1-4.2,3.9-9.3,8.4
	S8,47.6,7.8,47.9c-0.6,0.8-0.7,2.3-0.3,3.2c0.7,1.5,2.6,2.1,4.1,1.3c0.8-0.4,1.2-0.8,10.5-11.4c3.8-4.3,6.9-7.8,7-7.8
	c0.1,0,3.7,4.1,8.2,9.1c8.1,9.1,9,10.1,9.7,10.4C47.8,53,49.2,52.9,49.8,52.6L49.8,52.6z"/>
</svg>
