<?xml version="1.0" encoding="utf-8"?>
<!-- Generator: Adobe Illustrator 23.0.2, SVG Export Plug-In . SVG Version: 6.00 Build 0)  -->
<svg version="1.1" xmlns="http://www.w3.org/2000/svg" xmlns:xlink="http://www.w3.org/1999/xlink" x="0px" y="0px" width="60px"
	 height="60px" viewBox="0 0 60 60" style="enable-background:new 0 0 60 60;" xml:space="preserve">
<style type="text/css">
	.st0{fill:#FFFFFF;fill-opacity:0.5;stroke:#A30075;stroke-width:2;}
	.st1{fill:#A30075;}
</style>
<g id="Ebene_3">
	<path id="rect5_1_" class="st0" d="M17,59h26c8.8,0,16-7.2,16-16V17c0-8.8-7.2-16-16-16H17C8.2,1,1,8.2,1,17v26
		C1,51.8,8.2,59,17,59z"/>
</g>
<g id="Ebene_2">
	<path id="rect2562" class="st1" d="M17,12c-2.8-0.1-3.3,4.5-0.6,5c2.8,0.1,5.8,0,8.6,0v8.3c-0.2,0-0.4,0-0.6,0
		c-1.3,0.4-2,1.5-2.2,2.8H10.6c0-1.6,0-3.3,0-5c0.1-1.4-0.1-3.2-1.9-3.2c-0.1,0-0.1,0-0.1,0H6.6v21.3c-0.1,0.3-0.1,0.6,0,0.9v1.2
		c0,0.7,1.3,0.3,1.9,0.4v-0.1c0.9,0.1,1.8-0.3,2-1.5c0-2.2,0-4.4,0-6.6h11.7c0,0.1,0,0.3,0,0.4c0.3,1.8,2.2,2.7,3.9,2.5
		c1.7-0.1,3.5,0.2,5.1-0.3c1.2-0.5,1.7-1.4,1.9-2.6h8.5c0.8,1.5,2.5,1.5,3.8,0.9V48h8V36.2c-2.1-3.7-5.4-7.5-9.9-8
		c-1-0.3-1.7-0.2-1.9,0.4V28h-8.5c0-0.1,0-0.3,0-0.4c-0.2-1.3-1.5-2.3-2.8-2.5v-8.2c0.9,0,1.8,0,2.6,0c2,0,4,0.1,6,0
		c2.7-0.5,2.2-5-0.6-5H17z"/>
</g>
</svg>
